# xmcd CD database file
#
# Track frame offsets:
#	150
#	21327
#	39771
#	63115
#	85756
#	96908
#	116451
#	137699
#	160046
#
# Disc length: 2426 seconds
#
# Revision: 0
# Processed by: cddbd v1.5.2PL0 Copyright (c) Steve Scherf et al.
# Submitted via: CDex 1.70beta2
#
DISCID=63097809
DTITLE=Spyro Gyra - Catching the Sun
DYEAR=1980
DGENRE=Jazz
TTITLE0=Catching The Sun
TTITLE1=Cockatoo
TTITLE2=Autumn Of Our Love
TTITLE3=Laser Material
TTITLE4=Percolator
TTITLE5=Philly
TTITLE6=Lovin' You (Interlude), Lovin' You (Chet Catallo)
TTITLE7=Here Again
TTITLE8=Safari
EXTD=YEAR: 1980
EXTT0=
EXTT1=
EXTT2=
EXTT3=
EXTT4=
EXTT5=
EXTT6=
EXTT7=
EXTT8=
PLAYORDER=
